<svg width="21" height="21" viewBox="0 0 21 21" fill="none" xmlns="http://www.w3.org/2000/svg">
<path d="M12.3112 13.4613C8.9489 15.8573 4.38173 15.08 1.99252 11.8929C-0.271842 8.87472 0.0729851 4.68488 2.80465 2.0424C5.44713 -0.512491 9.67106 -0.679752 12.5672 1.59333C15.258 3.70708 16.6675 8.26513 13.7091 12.1494C13.7907 12.2021 13.8978 12.2481 13.9747 12.3246C16.0249 14.3698 18.0711 16.4189 20.1134 18.472C20.2948 18.6599 20.4219 18.8934 20.4812 19.1478C20.5723 19.5727 20.3226 19.9754 19.9425 20.1565C19.5501 20.3436 19.1173 20.2671 18.7895 19.9401C17.0192 18.1716 15.2488 16.402 13.4784 14.6313C13.0924 14.2461 12.7075 13.8593 12.3112 13.4613ZM7.95128 1.47244C4.66156 1.47046 1.98737 4.13553 1.98657 7.41258C1.98522 8.19589 2.1385 8.97177 2.43764 9.69572C2.73677 10.4197 3.17587 11.0774 3.72976 11.6313C4.28365 12.1852 4.94142 12.6243 5.66537 12.9235C6.38932 13.2226 7.1652 13.3759 7.94851 13.3745C11.2616 13.3745 13.8736 10.669 13.8871 7.44032C13.9005 4.15297 11.2271 1.47442 7.95128 1.47244Z" fill="url(#paint0_linear_869_1624)"/>
<defs>
<linearGradient id="paint0_linear_869_1624" x1="10.3947" y1="-1.29112" x2="10.3947" y2="53.3296" gradientUnits="userSpaceOnUse">
<stop stop-color="#C3C0D8"/>
<stop offset="1" stop-color="black"/>
</linearGradient>
</defs>
</svg>
